<?xml version="1.0" encoding="UTF-8" standalone="no"?>
<svg
   xmlns:dc="http://purl.org/dc/elements/1.1/"
   xmlns:cc="http://creativecommons.org/ns#"
   xmlns:rdf="http://www.w3.org/1999/02/22-rdf-syntax-ns#"
   xmlns:svg="http://www.w3.org/2000/svg"
   xmlns="http://www.w3.org/2000/svg"
   xmlns:xlink="http://www.w3.org/1999/xlink"
   width="76.902039mm"
   height="12.577063mm"
   viewBox="0 0 76.902039 12.577063"
   version="1.1"
   id="svg8">
  <defs
     id="defs2">
    <linearGradient
       id="linearGradient833">
      <stop
         id="stop829"
         offset="0"
         style="stop-color:#000000;stop-opacity:1;" />
      <stop
         id="stop831"
         offset="1"
         style="stop-color:#000000;stop-opacity:0;" />
    </linearGradient>
    <linearGradient
       gradientUnits="userSpaceOnUse"
       y2="4.3656254"
       x2="44.40659"
       y1="4.3656254"
       x1="0.036792073"
       id="linearGradient835"
       xlink:href="#linearGradient833" />
  </defs>
  <metadata
     id="metadata5">
    <rdf:RDF>
      <cc:Work
         rdf:about="">
        <dc:format>image/svg+xml</dc:format>
        <dc:type
           rdf:resource="http://purl.org/dc/dcmitype/StillImage" />
        <dc:title></dc:title>
      </cc:Work>
    </rdf:RDF>
  </metadata>
  <g
     aria-label="TechStator"
     style="font-style:normal;font-weight:normal;font-size:10.58333302px;line-height:1.25;font-family:sans-serif;letter-spacing:0px;word-spacing:0px;fill:#000000;fill-opacity:1;stroke:none;stroke-width:0.26458332"
     id="text23"
     transform="matrix(1.5966493,0,0,1.6528287,-6.8871718,9.0325274)">
    <path
       d="m 6.2820157,2.0281096 q -0.074083,0 -0.15875,-0.03175 -0.084667,-0.042333 -0.084667,-0.1164167 0,-0.09525 0.074083,-0.1481666 0.074083,-0.052917 0.1799166,-0.074083 0.4021667,-0.084667 0.5820833,-0.22225 0.1905,-0.1375833 0.1905,-0.47624995 V -3.4117236 q 0,-0.41275 -0.021167,-0.60325 -0.021167,-0.2010833 -0.0635,-0.2645833 -0.03175,-0.074083 -0.084667,-0.09525 -0.09525,-0.052917 -0.254,-0.052917 -0.1481667,-0.010583 -0.2434167,-0.010583 H 6.165599 q -0.3386666,0 -0.6455833,0.1693333 -0.2963333,0.15875 -0.47625,0.4021667 -0.052917,0.074083 -0.15875,0.2116667 -0.09525,0.127 -0.2116666,0.2328333 -0.1058334,0.09525 -0.2116667,0.09525 -0.084667,0 -0.1164167,-0.052917 -0.03175,-0.0635 -0.03175,-0.1375833 0,-0.127 0.0635,-0.2645833 0.2010834,-0.4021667 0.2963334,-0.6879167 0.09525,-0.28575 0.127,-0.6561666 0.021167,-0.15875 0.09525,-0.2116667 0.074083,-0.0635 0.1693333,-0.0635 0.074083,0 0.15875,0.1375833 0.084667,0.1375834 0.1799166,0.22225 0.1058334,0.084667 0.34925,0.127 0.254,0.042333 0.41275,0.042333 h 3.979333 q 0.264584,0 0.4445,-0.052917 0.1905,-0.052917 0.28575,-0.1058333 0.169334,-0.09525 0.264584,-0.2116667 0.105833,-0.1164167 0.243416,-0.1164167 0.0635,0 0.08467,0.052917 0.03175,0.042333 0.03175,0.127 0,0.042333 -0.01058,0.1058333 0,0.0635 -0.01058,0.1164167 -0.05292,0.2010833 -0.105833,0.3915833 -0.05292,0.1799167 -0.08467,0.34925 -0.03175,0.1693333 -0.03175,0.34925 v 0.2116667 q 0,0.1693333 -0.04233,0.2751666 -0.03175,0.1058333 -0.137583,0.1058333 -0.09525,0 -0.15875,-0.09525 -0.0635,-0.1058333 -0.137584,-0.3280833 -0.116416,-0.381 -0.34925,-0.5609166 -0.22225,-0.1799167 -0.6879164,-0.1799167 H 9.1924323 q -0.1799167,0 -0.2963334,0.084667 -0.1058333,0.074083 -0.15875,0.3175 -0.052917,0.2328333 -0.052917,0.7196666 v 4.26508322 q 0,0.31749998 0.1693333,0.46566668 0.1799167,0.1375833 0.5926667,0.2434166 0.1058333,0.03175 0.1799166,0.074083 0.074083,0.042333 0.074083,0.1375833 0,0.074083 -0.0635,0.1164167 -0.0635,0.042333 -0.1587499,0.042333 -0.2328334,0 -0.5291667,-0.021167 -0.28575,-0.010583 -0.5820833,-0.021167 -0.28575,-0.010583 -0.4974167,-0.010583 -0.22225,0 -0.508,0.010583 -0.2751666,0.010583 -0.5609166,0.021167 -0.2751667,0.021167 -0.5185833,0.021167 z"
       style="font-style:normal;font-variant:normal;font-weight:bold;font-stretch:normal;font-family:'EB Garamond';-inkscape-font-specification:'EB Garamond Bold';fill:#ff6600"
       id="path14" />
    <path
       d="m 12.663761,2.1445262 q -0.5715,0 -1.026583,-0.2963333 -0.4445,-0.3069166 -0.709083,-0.8255 -0.254,-0.5291666 -0.254,-1.19591658 0,-0.66674998 0.306916,-1.20649992 0.306917,-0.5503334 0.836084,-0.8678334 0.529166,-0.3280833 1.164166,-0.3280833 0.455083,0 0.814917,0.2010834 0.359833,0.1904999 0.5715,0.5185833 0.22225,0.3280833 0.22225,0.7408333 0,0.40216663 -0.328084,0.40216663 h -2.116666 q -0.148167,0 -0.22225,0.0846667 -0.0635,0.0846667 -0.0635,0.28574999 0,0.40216665 0.179917,0.74083331 0.179916,0.32808332 0.486833,0.51858332 0.306916,0.19049995 0.709083,0.19049995 0.306917,0 0.560917,-0.11641662 0.264583,-0.11641666 0.518583,-0.31749999 0.04233,-0.03175 0.07408,-0.0529167 0.04233,-0.03175 0.07408,-0.03175 0.105833,0 0.105833,0.13758332 0,0.11641667 -0.08467,0.31749999 -0.105833,0.2645833 -0.359833,0.5291667 -0.243417,0.254 -0.613833,0.41275 -0.370417,0.1587499 -0.846667,0.1587499 z m -0.518583,-3.3019999 h 0.635 q 0.296333,0 0.41275,-0.010583 0.116416,-0.010583 0.211666,-0.042333 0.05292,-0.021167 0.08467,-0.1058333 0.03175,-0.084667 0.03175,-0.1905 0,-0.28575 -0.201083,-0.4656667 -0.1905,-0.1799167 -0.47625,-0.1799167 -0.22225,0 -0.423334,0.127 -0.190499,0.1164167 -0.317499,0.3175 -0.116417,0.1905 -0.105834,0.4021667 0,0.1481666 0.148167,0.1481666 z"
       style="font-style:normal;font-variant:normal;font-weight:bold;font-stretch:normal;font-family:'EB Garamond';-inkscape-font-specification:'EB Garamond Bold';fill:#ff6600"
       id="path16" />
    <path
       d="m 17.055834,2.1445262 q -0.560917,0 -1.016,-0.2963333 -0.4445,-0.3069166 -0.709083,-0.8149166 -0.254,-0.51858334 -0.254,-1.16416665 0,-0.68791665 0.3175,-1.23824995 0.3175,-0.5503333 0.846666,-0.8784167 0.53975,-0.3280833 1.195917,-0.3280833 0.867833,0 1.439333,0.5715 0.09525,0.1058333 0.09525,0.1905 0,0.0635 -0.09525,0.1905 -0.09525,0.1164167 -0.211667,0.2116667 -0.116416,0.09525 -0.201083,0.09525 -0.09525,0 -0.1905,-0.052917 -0.08467,-0.0635 -0.169333,-0.1375833 -0.275167,-0.2328334 -0.560917,-0.3704167 -0.275167,-0.1481667 -0.47625,-0.1481667 -0.402166,0 -0.613833,0.3386667 -0.201083,0.3280833 -0.201083,1.07949996 0,0.51858332 0.15875,0.89958331 0.169333,0.37041666 0.47625,0.57149998 0.306916,0.20108335 0.740833,0.20108335 0.3175,0 0.550333,-0.09525 0.232833,-0.10583333 0.486833,-0.31749999 0.05292,-0.03175 0.08467,-0.0635 0.04233,-0.03175 0.09525,-0.03175 0.127,0 0.127,0.16933332 0,0.0423333 -0.02117,0.127 -0.01058,0.0740833 -0.0635,0.16933327 -0.09525,0.2116667 -0.370416,0.47625 -0.264584,0.2645834 -0.635,0.4550834 -0.370417,0.1904999 -0.8255,0.1905002 z"
       style="font-style:normal;font-variant:normal;font-weight:bold;font-stretch:normal;font-family:'EB Garamond';-inkscape-font-specification:'EB Garamond Bold';fill:#ff6600"
       id="path18" />
    <path
       d="m 19.479396,2.0281096 q -0.211666,0 -0.211666,-0.1481667 0,-0.1375833 0.243416,-0.2116666 0.15875,-0.052917 0.275167,-0.1164167 0.116417,-0.0635 0.127,-0.2963333 v -5.0799999 q 0,-0.28575 -0.07408,-0.4974166 -0.07408,-0.2116667 -0.338667,-0.2645833 -0.116417,-0.021167 -0.116417,-0.15875 0,-0.1375834 0.105834,-0.15875 0.243416,-0.052917 0.550333,-0.1481667 0.3175,-0.1058333 0.613833,-0.2116667 0.296334,-0.1164166 0.455084,-0.1693333 0.08467,-0.03175 0.137583,-0.03175 0.0635,0 0.08467,0.042333 0.02117,0.03175 0.02117,0.084667 0,0.052917 -0.02117,0.15875 -0.01058,0.09525 -0.02117,0.2434167 -0.01058,0.1375833 -0.02117,0.3280833 v 2.4447499 q 0,0.1058333 0.01058,0.1905 0.01058,0.084667 0.05292,0.1164167 0.15875,-0.1375834 0.381,-0.2963334 0.22225,-0.1693333 0.508,-0.2963333 0.296333,-0.127 0.656167,-0.127 0.560916,0 0.941916,0.4021667 0.381,0.3915833 0.381,1.1006666 v 2.3071666 q 0,0.22225 0.116417,0.3069167 0.116417,0.074083 0.264583,0.127 0.116417,0.03175 0.169334,0.084667 0.0635,0.042333 0.0635,0.127 0,0.1481667 -0.232834,0.1481667 -0.254,0 -0.41275,-0.021167 -0.15875,-0.010583 -0.306916,-0.021167 -0.137584,-0.010583 -0.359834,-0.010583 -0.232833,0 -0.359833,0.010583 -0.127,0.010583 -0.264583,0.021167 -0.137584,0.021167 -0.391584,0.021167 -0.264583,0 -0.264583,-0.15875 0,-0.084667 0.0635,-0.127 0.07408,-0.052917 0.15875,-0.074083 0.137583,-0.052917 0.254,-0.1375834 0.116417,-0.084667 0.116417,-0.3175 v -2.08491656 q 0,-0.23283334 -0.09525,-0.41274994 -0.09525,-0.1905 -0.254,-0.2963334 -0.148167,-0.1164166 -0.328084,-0.1164166 -0.15875,0 -0.34925,0.052917 -0.1905,0.052917 -0.370416,0.1799167 -0.08467,0.0635 -0.116417,0.1481667 -0.02117,0.074083 -0.02117,0.2328333 v 2.3177499 q 0,0.2116667 0.105833,0.2963333 0.105833,0.074083 0.243416,0.127 0.09525,0.03175 0.15875,0.084667 0.0635,0.042333 0.0635,0.127 0,0.15875 -0.1905,0.15875 -0.211666,0 -0.402166,-0.021167 -0.179917,-0.010583 -0.34925,-0.021167 -0.15875,-0.010583 -0.34925,-0.010583 -0.179917,0 -0.359833,0.010583 -0.169334,0.010583 -0.34925,0.021167 -0.179917,0.021167 -0.391584,0.021167 z"
       style="font-style:normal;font-variant:normal;font-weight:bold;font-stretch:normal;font-family:'EB Garamond';-inkscape-font-specification:'EB Garamond Bold';fill:#ff6600"
       id="path20" />
    <path
       d="m 27.321626,2.1445262 q -0.455083,0 -0.878417,-0.1058333 -0.423333,-0.1058333 -0.793749,-0.3386666 -0.0635,-0.052917 -0.127,-0.1164167 -0.0635,-0.0635 -0.09525,-0.1375833 -0.105834,-0.28575 -0.148167,-0.69850001 -0.03175,-0.41274999 -0.02117,-0.83608331 0,-0.07408333 0.0635,-0.10583333 0.0635,-0.03175 0.148167,-0.03175 0.105833,0 0.137583,0.03175 0.04233,0.0211667 0.08467,0.09525 0.232833,0.79374998 0.687917,1.28058325 0.465666,0.4868334 1.079499,0.4868334 0.338667,0 0.550334,-0.1481667 0.22225,-0.15875 0.338666,-0.3915833 0.116417,-0.24341668 0.116417,-0.48683334 0,-0.33866666 -0.137583,-0.57149998 -0.127,-0.23283333 -0.391584,-0.42333332 -0.264583,-0.1905 -0.677333,-0.41274999 -0.4445,-0.25399997 -0.85725,-0.52916667 -0.41275,-0.28575 -0.677333,-0.6879166 -0.264583,-0.4021667 -0.264583,-1.0054167 0,-0.6244166 0.3175,-1.0794999 0.328083,-0.4550834 0.888999,-0.7090833 0.560917,-0.254 1.259417,-0.254 0.402167,0 0.762,0.084667 0.370417,0.084667 0.592667,0.1693334 0.127,0.052917 0.179916,0.1164166 0.0635,0.0635 0.105834,0.22225 0.05292,0.22225 0.08467,0.53975 0.04233,0.3175 0.04233,0.6985 0,0.1375833 -0.1905,0.1375833 -0.09525,0 -0.179917,-0.042333 -0.07408,-0.052917 -0.09525,-0.127 -0.179917,-0.635 -0.529167,-0.9630833 -0.34925,-0.3280834 -0.85725,-0.3280834 -0.3175,0 -0.53975,0.1058334 -0.22225,0.1058333 -0.338666,0.3175 -0.105834,0.2116666 -0.105834,0.5291666 0,0.254 0.169334,0.47625 0.179916,0.2116667 0.508,0.4339167 0.328083,0.22225 0.751416,0.4762499 0.5715,0.3386667 0.910167,0.66675 0.338667,0.3280833 0.486833,0.6985 0.15875,0.35983333 0.15875,0.83608331 0,0.71966665 -0.3175,1.19591659 -0.306916,0.47625 -0.878416,0.7090834 -0.560917,0.2222499 -1.322917,0.2222492 z"
       style="fill:#ff5555"
       id="path22" />
    <path
       d="m 32.549787,2.1445262 q -0.6985,0 -1.04775,-0.3492499 -0.34925,-0.3598334 -0.34925,-1.00541668 V -1.644307 q 0,-0.09525 -0.07408,-0.1375833 -0.0635,-0.042333 -0.254,-0.052917 H 30.68712 q -0.07408,0 -0.127,-0.1164166 -0.04233,-0.127 -0.04233,-0.22225 0,-0.021167 0.01058,-0.052917 0.02117,-0.042333 0.05292,-0.052917 0.254,-0.09525 0.53975,-0.2857499 0.296333,-0.2010834 0.560917,-0.4233334 0.275166,-0.22225 0.4445,-0.3704166 0.07408,-0.052917 0.127,-0.09525 0.05292,-0.042333 0.137583,-0.042333 0.09525,0 0.137583,0.042333 0.04233,0.03175 0.02117,0.1693333 l -0.0635,0.6244167 q -0.01058,0.127 0.05292,0.1799166 0.07408,0.042333 0.201083,0.042333 h 1.259417 q 0.03175,0 0.0635,0.074083 0.03175,0.074083 0.03175,0.1375833 0,0.1481667 -0.04233,0.28575 -0.04233,0.1375833 -0.09525,0.1375833 h -0.98425 q -0.243416,0 -0.338666,0.0635 -0.08467,0.052917 -0.08467,0.2010834 v 2.0002499 q 0,0.48683332 0.179917,0.73025 0.1905,0.2328333 0.497416,0.2328333 0.306917,0 0.4445,-0.0635 0.148167,-0.0635 0.264584,-0.1058333 0.04233,-0.021167 0.0635,-0.021167 0.05292,0 0.08467,0.0635 0.03175,0.0635 0.03175,0.1481667 0,0.0635 -0.22225,0.2328333 -0.22225,0.1693333 -0.582083,0.3175 -0.34925,0.1481666 -0.762,0.1481666 z"
       style="fill:#ff5555"
       id="path24" />
    <path
       d="m 35.566016,2.1445262 q -0.28575,0 -0.529167,-0.1375833 -0.243416,-0.1375833 -0.391583,-0.3598333 -0.137583,-0.22225 -0.137583,-0.4868333 0,-0.35983334 0.22225,-0.60325 0.232833,-0.24341666 0.677333,-0.43391666 l 0.941917,-0.41274998 q 0.211666,-0.09525 0.254,-0.16933333 0.05292,-0.0740833 0.05292,-0.27516666 l 0.01058,-0.60324997 q 0.01058,-0.2963333 -0.105834,-0.4656667 -0.116416,-0.1799166 -0.34925,-0.1799166 -0.137583,0 -0.275166,0.0635 -0.137584,0.052917 -0.211667,0.127 -0.03175,0.042333 -0.05292,0.1058333 -0.01058,0.052917 -0.01058,0.1164167 0,0.0635 0.01058,0.15875 0.01058,0.084667 0.01058,0.1481666 0,0.0635 -0.169334,0.1693333 -0.169333,0.09525 -0.391583,0.17991671 -0.22225,0.0740833 -0.381,0.0740833 -0.07408,0 -0.137583,-0.0635 -0.05292,-0.0635 -0.05292,-0.15875001 0,-0.1693333 0.116417,-0.3280833 0.116416,-0.1693333 0.381,-0.381 0.275166,-0.2328333 0.60325,-0.41275 0.328083,-0.1799166 0.645583,-0.2857499 0.328083,-0.1058334 0.550333,-0.1058334 0.5715,0 0.910167,0.3704167 0.338667,0.3598333 0.3175,0.9630833 l -0.05292,2.13783322 q -0.01058,0.24341668 0.08467,0.41274998 0.09525,0.1693334 0.232833,0.1693334 0.201084,0 0.34925,-0.1375834 0.03175,-0.03175 0.0635,-0.03175 0.05292,0 0.08467,0.03175 0.04233,0.03175 0.04233,0.084667 0,0.127 -0.1905,0.3280833 -0.201083,0.1905 -0.423333,0.28575 -0.22225,0.1058333 -0.465667,0.1058333 -0.592666,0 -0.98425,-0.6032499 h -0.02117 q -0.34925,0.3175 -0.635,0.4550833 -0.275167,0.1481666 -0.592667,0.1481666 z m 0.635,-0.6879166 q 0.116417,0 0.1905,-0.03175 0.07408,-0.042333 0.148167,-0.127 0.03175,-0.042333 0.05292,-0.1058333 0.02117,-0.074083 0.02117,-0.1693334 l 0.03175,-0.76199993 q 0,-0.10583333 -0.03175,-0.13758333 -0.03175,-0.03175 -0.07408,-0.03175 -0.02117,0 -0.05292,0.01058334 -0.03175,0.0105833 -0.07408,0.03175 -0.306917,0.14816666 -0.455084,0.30691665 -0.148166,0.14816667 -0.148166,0.48683332 0,0.30691665 0.127,0.42333335 0.127,0.1058333 0.264583,0.1058333 z"
       style="fill:#ff5555"
       id="path26" />
    <path
       d="m 41.154012,2.1445262 q -0.6985,0 -1.04775,-0.3492499 -0.34925,-0.3598334 -0.34925,-1.00541668 V -1.644307 q 0,-0.09525 -0.07408,-0.1375833 -0.0635,-0.042333 -0.254,-0.052917 h -0.137583 q -0.07408,0 -0.127,-0.1164166 -0.04233,-0.127 -0.04233,-0.22225 0,-0.021167 0.01058,-0.052917 0.02117,-0.042333 0.05292,-0.052917 0.254,-0.09525 0.53975,-0.2857499 0.296334,-0.2010834 0.560917,-0.4233334 0.275167,-0.22225 0.4445,-0.3704166 0.07408,-0.052917 0.127,-0.09525 0.05292,-0.042333 0.137583,-0.042333 0.09525,0 0.137583,0.042333 0.04233,0.03175 0.02117,0.1693333 l -0.0635,0.6244167 q -0.01058,0.127 0.05292,0.1799166 0.07408,0.042333 0.201083,0.042333 h 1.259417 q 0.03175,0 0.0635,0.074083 0.03175,0.074083 0.03175,0.1375833 0,0.1481667 -0.04233,0.28575 -0.04233,0.1375833 -0.09525,0.1375833 h -0.98425 q -0.243416,0 -0.338666,0.0635 -0.08467,0.052917 -0.08467,0.2010834 v 2.0002499 q 0,0.48683332 0.179917,0.73025 0.1905,0.2328333 0.497416,0.2328333 0.306917,0 0.4445,-0.0635 0.148167,-0.0635 0.264584,-0.1058333 0.04233,-0.021167 0.0635,-0.021167 0.05292,0 0.08467,0.0635 0.03175,0.0635 0.03175,0.1481667 0,0.0635 -0.22225,0.2328333 -0.22225,0.1693333 -0.582083,0.3175 -0.34925,0.1481666 -0.762,0.1481666 z"
       style="fill:#ff5555"
       id="path28" />
    <path
       d="m 45.313243,2.1445262 q -0.635,0 -1.143,-0.2857499 -0.508,-0.28575 -0.814917,-0.7831667 -0.296333,-0.50799997 -0.296333,-1.14299995 0,-0.50799999 0.1905,-0.96308335 0.1905,-0.4550833 0.529167,-0.8043333 0.338666,-0.34925 0.79375,-0.5503333 0.455083,-0.2010833 0.973666,-0.2010833 0.656167,0 1.185334,0.3069166 0.529166,0.3069167 0.836083,0.8149167 0.3175,0.49741664 0.3175,1.09008329 0,0.67733331 -0.296333,1.25941663 Q 47.30291,1.4566096 46.73141,1.8058596 46.170493,2.1445262 45.313243,2.1445262 Z M 45.52491,1.6788596 q 0.22225,0 0.381,-0.084667 0.169333,-0.09525 0.275166,-0.2751666 0.127,-0.2116667 0.169334,-0.57150001 0.05292,-0.37041665 0.05292,-0.86783331 0,-0.57149998 -0.127,-1.01599998 -0.127,-0.4550833 -0.359833,-0.7196666 -0.22225,-0.2645834 -0.529167,-0.2645834 -0.169333,0 -0.306916,0.0635 -0.137584,0.052917 -0.243417,0.15875 -0.179917,0.2116667 -0.254,0.60325 -0.0635,0.39158334 -0.0635,0.96308332 0,0.50799999 0.127,0.97366664 0.137583,0.45508334 0.359833,0.75141664 0.232834,0.28575 0.518584,0.28575 z"
       style="fill:#ff5555"
       id="path30" />
    <path
       d="m 48.572892,2.0281096 q -0.08467,0 -0.148167,-0.03175 -0.0635,-0.042333 -0.0635,-0.1164167 0,-0.084667 0.0635,-0.127 0.0635,-0.052917 0.179917,-0.084667 0.232833,-0.074083 0.306916,-0.15875 0.08467,-0.084667 0.08467,-0.2434167 V -1.168057 q 0,-0.22225 -0.0635,-0.3598333 -0.05292,-0.1481667 -0.254,-0.2010833 -0.05292,-0.021167 -0.09525,-0.052917 -0.04233,-0.042333 -0.04233,-0.1375833 0,-0.1481667 0.127,-0.1799167 0.338666,-0.084667 0.740833,-0.22225 0.41275,-0.1375833 0.6985,-0.2751666 0.05292,-0.042333 0.127,-0.074083 0.08467,-0.042333 0.116417,-0.042333 0.09525,0 0.09525,0.1164167 0,0.052917 -0.01058,0.22225 0,0.1587499 -0.01058,0.3280833 0,0.1693333 -0.01058,0.28575 0,0.09525 0.04233,0.09525 0.15875,-0.22225 0.370417,-0.4339167 0.22225,-0.2116667 0.47625,-0.34925 0.254,-0.1375833 0.497416,-0.1375833 0.370417,0 0.518584,0.1375833 0.15875,0.1375833 0.15875,0.3598333 0,0.15875 -0.09525,0.34925 -0.08467,0.1905 -0.22225,0.3280834 -0.137584,0.1375833 -0.296334,0.1375833 -0.09525,0 -0.201083,-0.042333 -0.105833,-0.052917 -0.211667,-0.1058334 -0.105833,-0.042333 -0.211666,-0.084667 -0.09525,-0.052917 -0.179917,-0.052917 -0.275167,0 -0.47625,0.2010833 -0.201083,0.2010833 -0.201083,0.80433333 V 1.1708596 q 0,0.2116667 0.127,0.3175 0.137583,0.09525 0.433916,0.1799167 0.116417,0.03175 0.169334,0.084667 0.0635,0.042333 0.0635,0.127 0,0.1481667 -0.179917,0.1481667 -0.3175,0 -0.656167,-0.03175 -0.338666,-0.021167 -0.613833,-0.021167 -0.179917,0 -0.370417,0.010583 -0.179916,0.010583 -0.381,0.021167 -0.1905,0.021167 -0.402166,0.021167 z"
       style="fill:#ff5555"
       id="path32" />
  </g>
</svg>
